# xmcd
#
# Track frame offsets:
#	150
#	9010
#	21036
#	34650
#	46537
#	68475
#	80888
#	99378
#	110966
#	127651
#	138451
#	148317
#
# Disc length: 2169 seconds
# Revision: 1
# Processed by: cddbd v1.5.2PL0 Copyright (c) Steve Scherf et al.
# Submitted via: dBpowerAMP V12.0
#
DISCID=9508770c
DTITLE=Southern Rail - On the Road From Appomattox
DYEAR=2009
DGENRE=Bluegrass
TTITLE0=Beyond the Heavens
TTITLE1=Prisoner Of the Highway
TTITLE2=Hobo On a Freight Train
TTITLE3=Polka On a Banjo
TTITLE4=Mr. Beford's Barn
TTITLE5=I Love To Tell the Story
TTITLE6=On the Road From Appomattox
TTITLE7=Roustabout
TTITLE8=Holding Things Together
TTITLE9=Panhandle Rag
TTITLE10=Swing Low, Sweet Chariot
TTITLE11=I Know the Way to You By Heart
EXTD=
EXTT0=
EXTT1=
EXTT2=
EXTT3=
EXTT4=
EXTT5=
EXTT6=
EXTT7=
EXTT8=
EXTT9=
EXTT10=
EXTT11=
PLAYORDER=
